<svg width="32" height="32" viewBox="0 0 32 32" fill="none" xmlns="http://www.w3.org/2000/svg">
    <!-- Ribbon left - neon pink/purple -->
    <path d="M14.0346 3.55204L18.2991 10.8362L12.2834 12.5469C8.12828 11.172 5.68075 8.52904 4.20532 5.8125C3.58307 4.66681 3.58813 2.5625 6.06108 2.5625H12.3087C13.0189 2.5625 13.6758 2.93914 14.0346 3.55204Z" fill="url(#neonRibbon1)"/>
    <!-- Ribbon right - neon purple/cyan -->
    <path d="M17.8123 3.55204L13.5479 10.8362L19.5635 12.5469C23.7186 11.172 26.1662 8.52904 27.6416 5.8125C28.2639 4.66681 28.2588 2.5625 25.7858 2.5625H19.5383C18.828 2.5625 18.1711 2.93914 17.8123 3.55204Z" fill="url(#neonRibbon2)"/>
    <!-- Medal outer ring -->
    <circle cx="16.047" cy="20.1318" r="10.0477" fill="url(#goldOuter)"/>
    <!-- Medal inner ring -->
    <circle cx="16.047" cy="20.1317" r="8.68832" fill="url(#goldMid)"/>
    <!-- Medal center -->
    <circle cx="16.047" cy="20.1317" r="7.58486" fill="url(#goldInner)"/>
    <!-- Number 1 -->
    <text x="16" y="24" text-anchor="middle" fill="#996B00" font-size="10" font-weight="bold" font-family="Arial">1</text>
    <defs>
        <linearGradient id="neonRibbon1" x1="0%" y1="0%" x2="100%" y2="100%">
            <stop offset="0%" stop-color="#ff1b6b"/>
            <stop offset="100%" stop-color="#c71ae5"/>
        </linearGradient>
        <linearGradient id="neonRibbon2" x1="100%" y1="0%" x2="0%" y2="100%">
            <stop offset="0%" stop-color="#c71ae5"/>
            <stop offset="100%" stop-color="#45caff"/>
        </linearGradient>
        <linearGradient id="goldOuter" x1="0%" y1="0%" x2="100%" y2="100%">
            <stop offset="0%" stop-color="#F4C654"/>
            <stop offset="100%" stop-color="#DC9729"/>
        </linearGradient>
        <linearGradient id="goldMid" x1="0%" y1="0%" x2="100%" y2="100%">
            <stop offset="0%" stop-color="#F9A842"/>
            <stop offset="100%" stop-color="#FAA742"/>
        </linearGradient>
        <linearGradient id="goldInner" x1="0%" y1="0%" x2="100%" y2="100%">
            <stop offset="0%" stop-color="#FAA945"/>
            <stop offset="100%" stop-color="#EC9936"/>
        </linearGradient>
    </defs>
</svg>
