<svg width="32" height="32" viewBox="0 0 32 32" fill="none" xmlns="http://www.w3.org/2000/svg">
    <!-- Handles -->
    <path d="M24.5 6.8C23.6 6.5 22.7 7.1 22.4 8L20.8 7.5C21.3 5.7 23.2 4.6 25 5.1L25.2 5.2C27.6 6 27.8 9.4 25.6 10.6L20.6 13.4C20.2 13.6 19.7 13.4 19.4 13C19.2 12.6 19.4 12.1 19.8 11.8L24.7 9.1C25.7 8.5 25.6 7.1 24.6 6.8L24.5 6.8Z" fill="url(#sSilverHandle)"/>
    <path d="M6.3 5.1C8.1 4.6 10 5.7 10.5 7.5L8.8 8C8.5 7.1 7.6 6.5 6.7 6.8L6.6 6.8C5.7 7.1 5.5 8.5 6.5 9.1L11.4 11.8C11.9 12.1 12 12.6 11.8 13C11.6 13.4 11 13.6 10.6 13.4L5.6 10.6C3.4 9.4 3.6 6 6.1 5.2L6.3 5.1Z" fill="url(#sSilverHandle)"/>
    <!-- Stem -->
    <path d="M17.3 17.5V13.3H13.9V17.5C13.9 18.2 13.6 18.9 13 19.4L11.1 21H20.1L18.2 19.4C17.6 18.9 17.3 18.2 17.3 17.5Z" fill="url(#sSilverStem)"/>
    <!-- Cup body -->
    <path d="M15.6 16.5C11.8 16.5 8.6 13.4 8.6 9.5V2.7C8.6 2.3 9 2 9.3 2H21.9C22.3 2 22.6 2.3 22.6 2.7V9.5C22.6 13.4 19.5 16.5 15.6 16.5Z" fill="url(#sSilverCup)"/>
    <!-- Base - neon pink/purple -->
    <path d="M22.5 21H8.7C8 21 7.3 21.5 7.2 22.2L5.7 29.3C5.6 29.6 5.8 29.9 6.2 29.9H25C25.4 29.9 25.6 29.6 25.6 29.3L24 22.2C23.9 21.5 23.3 21 22.5 21Z" fill="url(#sSilverBase)"/>
    <!-- Plaque -->
    <rect x="12" y="23.7" width="7.3" height="3.1" rx="0.4" fill="url(#sSilverPlaque)"/>
    <!-- Star emblem -->
    <path d="M15.6 6l1 2 2.2.3-1.6 1.5.4 2.2-2-1-2 1 .4-2.2-1.6-1.5 2.2-.3z" fill="#fff" opacity="0.4"/>
    <defs>
        <linearGradient id="sSilverHandle" x1="0%" y1="0%" x2="100%" y2="100%">
            <stop offset="0%" stop-color="#E8E8E8"/>
            <stop offset="100%" stop-color="#B8B8B8"/>
        </linearGradient>
        <linearGradient id="sSilverStem" x1="0%" y1="0%" x2="100%" y2="100%">
            <stop offset="0%" stop-color="#D0D0D0"/>
            <stop offset="100%" stop-color="#A0A0A0"/>
        </linearGradient>
        <radialGradient id="sSilverCup" cx="0.5" cy="0.2" r="0.8">
            <stop offset="0%" stop-color="#F5F5F5"/>
            <stop offset="100%" stop-color="#C0C0C0"/>
        </radialGradient>
        <linearGradient id="sSilverBase" x1="0%" y1="0%" x2="100%" y2="100%">
            <stop offset="0%" stop-color="#ff1b6b"/>
            <stop offset="100%" stop-color="#c71ae5"/>
        </linearGradient>
        <linearGradient id="sSilverPlaque" x1="0%" y1="0%" x2="100%" y2="100%">
            <stop offset="0%" stop-color="#E8E8E8"/>
            <stop offset="100%" stop-color="#C8C8C8"/>
        </linearGradient>
    </defs>
</svg>
