<svg width="32" height="32" viewBox="0 0 32 32" fill="none" xmlns="http://www.w3.org/2000/svg">
<!-- Handle -->
<path d="M10 28L22 4" stroke="url(#axeHandle)" stroke-width="2.5" stroke-linecap="round"/>
<!-- Axe head -->
<path d="M18 6C18 6 22 4 26 6C28 7 29 9 29 11C29 14 26 16 22 16C20 16 18 15 17 14L15 10C15 10 16 8 18 6Z" fill="url(#axeHead)"/>
<!-- Axe blade edge -->
<path d="M26 6C28 7 29 9 29 11C29 14 26 16 22 16" stroke="url(#axeBlade)" stroke-width="1.5" stroke-linecap="round"/>
<!-- Handle binding -->
<rect x="12" y="20" width="4" height="2" rx="0.5" transform="rotate(-60 12 20)" fill="url(#axeBinding)"/>
<defs>
    <linearGradient id="axeHandle" x1="10" y1="28" x2="22" y2="4" gradientUnits="userSpaceOnUse">
        <stop stop-color="#8B4513"/>
        <stop offset="0.5" stop-color="#A0522D"/>
        <stop offset="1" stop-color="#8B4513"/>
    </linearGradient>
    <linearGradient id="axeHead" x1="15" y1="16" x2="29" y2="6" gradientUnits="userSpaceOnUse">
        <stop stop-color="#ff1b6b"/>
        <stop offset="0.5" stop-color="#c71ae5"/>
        <stop offset="1" stop-color="#45caff"/>
    </linearGradient>
    <linearGradient id="axeBlade" x1="22" y1="16" x2="29" y2="6" gradientUnits="userSpaceOnUse">
        <stop stop-color="#45caff"/>
        <stop offset="1" stop-color="#ffffff"/>
    </linearGradient>
    <linearGradient id="axeBinding" x1="12" y1="20" x2="16" y2="22" gradientUnits="userSpaceOnUse">
        <stop stop-color="#c71ae5"/>
        <stop offset="1" stop-color="#ff1b6b"/>
    </linearGradient>
</defs>
</svg>
