<svg width="32" height="32" viewBox="0 0 32 32" fill="none" xmlns="http://www.w3.org/2000/svg">
    <!-- Outer glow -->
    <path d="M18.6046 3.74448L20.8077 8.36425C21.1488 9.05025 21.771 9.5326 22.4934 9.63978L27.4208 10.3365C29.9595 10.7117 30.9171 13.4375 28.9483 15.4219L25.4952 18.9844C24.9333 19.5417 24.6724 20.3671 24.8128 21.171L25.5889 26.2344C26.0304 28.8605 23.8186 30.7236 21.5809 29.5231L17.0454 27.1114C16.4133 26.7791 15.6708 26.7791 15.0386 27.1114L10.5031 29.5231C8.26548 30.7128 5.91705 28.9062 6.5733 26.1719L7.33893 21.2188C7.47941 20.4148 7.21852 19.5895 6.6566 19.0322L3.13576 15.3438C1.15142 13.3828 2.12453 10.7117 4.66319 10.3365L9.40939 9.63978C10.1319 9.5326 10.9609 9.06097 11.2921 8.36425L13.5397 3.74448C14.6836 1.41851 17.4707 1.41851 18.6046 3.74448Z" fill="url(#glowingStar)"/>
    <defs>
        <radialGradient id="glowingStar" cx="0.5" cy="0.5" r="0.7">
            <stop offset="0%" stop-color="#c71ae5"/>
            <stop offset="50%" stop-color="#c71ae5"/>
            <stop offset="100%" stop-color="#ff1b6b"/>
        </radialGradient>
    </defs>
</svg>
