<svg width="32" height="32" viewBox="0 0 32 32" fill="none" xmlns="http://www.w3.org/2000/svg">
    <!-- Valentine Champion - Heart on Trophy -->

    <!-- Trophy base -->
    <rect x="13" y="26" width="6" height="2" rx="1" fill="url(#trophyBaseGrad)"/>
    <rect x="11" y="28" width="10" height="2" rx="1" fill="url(#trophyBaseGrad)"/>

    <!-- Trophy cup -->
    <path d="M10 16 L10 21 Q10 24 16 24 Q22 24 22 21 L22 16 Z" fill="url(#trophyCupGrad)"/>

    <!-- Trophy handles -->
    <path d="M10 18 Q7 18 7 20 Q7 22 10 22" fill="none" stroke="url(#trophyHandleGrad)" stroke-width="1.5"/>
    <path d="M22 18 Q25 18 25 20 Q25 22 22 22" fill="none" stroke="url(#trophyHandleGrad)" stroke-width="1.5"/>

    <!-- Trophy shine -->
    <ellipse cx="13" cy="19" rx="1.5" ry="2" fill="white" opacity="0.3"/>

    <!-- Valentine heart on top of trophy -->
    <path d="M16 16C16 16 9 11 9 6C9 3.5 10.5 2 12.5 2C14 2 15 3 16 4.5C17 3 18 2 19.5 2C21.5 2 23 3.5 23 6C23 11 16 16 16 16Z" fill="url(#valentineChampionGrad)"/>

    <!-- Heart shine -->
    <ellipse cx="12" cy="5.5" rx="1.5" ry="2" fill="white" opacity="0.5"/>

    <!-- Gold sparkles -->
    <circle cx="20" cy="4" r="1" fill="#FFD700" opacity="0.9"/>
    <circle cx="24" cy="7" r="0.8" fill="#FFD700" opacity="0.7"/>

    <!-- 'V' letter in center of heart -->
    <path d="M13.5 6 L16 11 L18.5 6" stroke="white" stroke-width="1.8" stroke-linecap="round" stroke-linejoin="round" fill="none" opacity="0.95"/>

    <defs>
        <!-- Heart gradient -->
        <linearGradient id="valentineChampionGrad" x1="0%" y1="0%" x2="100%" y2="100%">
            <stop offset="0%" stop-color="#FFD700"/>
            <stop offset="40%" stop-color="#FF6B6B"/>
            <stop offset="100%" stop-color="#FF1744"/>
        </linearGradient>

        <!-- Trophy gradients -->
        <linearGradient id="trophyCupGrad" x1="0%" y1="0%" x2="0%" y2="100%">
            <stop offset="0%" stop-color="#FFC107"/>
            <stop offset="50%" stop-color="#FFB300"/>
            <stop offset="100%" stop-color="#FF8F00"/>
        </linearGradient>

        <linearGradient id="trophyBaseGrad" x1="0%" y1="0%" x2="0%" y2="100%">
            <stop offset="0%" stop-color="#FF8F00"/>
            <stop offset="100%" stop-color="#E65100"/>
        </linearGradient>

        <linearGradient id="trophyHandleGrad" x1="0%" y1="0%" x2="100%" y2="0%">
            <stop offset="0%" stop-color="#FFB300"/>
            <stop offset="100%" stop-color="#FFC107"/>
        </linearGradient>
    </defs>
</svg>
